#!OML:ASF E:\Steps\Project 1\Capture day 1\Session 2\Subject.ASF
:FULLY-SPECIFIED
:DEGREES
416
root 3.12377 18.9407 16.6332 -149.6 -0.079168 176.905
lowerback -22.3681 -2.13968 -7.36818
upperback 2.00091 -0.802021 -1.19524
thorax 15.0763 -0.968655 2.53972
lowerneck -2.39127 -1.63013 -0.220699
upperneck 14.2226 -1.91315 2.77558
head 4.68149 -0.538387 0.821778
rclavicle 3.37934e-015 -3.26007e-014
rhumerus -34.1036 -10.7152 -81.4518
rradius 40.7844
rwrist -4.55033
rhand -8.40429 -51.3131
rfingers 7.12502
rthumb 17.5198 -80.5437
lclavicle 3.37934e-015 -3.26007e-014
lhumerus -22.0909 -4.79257 82.772
lradius 30.0114
lwrist 0.100948
lhand -24.7803 -14.3846
lfingers 7.12502
lthumb 1.72371 15.5882
rfemur -32.803 10.9191 13.572
rtibia 12.9996
rfoot -17.3728 -3.19328
rtoes -26.9655
lfemur -29.4928 -1.81518 -27.9197
ltibia 9.97553
lfoot -4.41172 -2.31337
ltoes -4.94434
417
root 3.10109 18.9463 16.5624 -150.784 0.335123 177.298
lowerback -22.1342 -1.84244 -6.87082
upperback 2.35854 -0.516778 -1.19657
thorax 15.3312 -0.802189 2.35436
lowerneck -2.42188 -1.63981 -0.093576
upperneck 14.2034 -1.91745 2.59853
head 4.67804 -0.545939 0.745675
rclavicle -2.38542e-015 1.07344e-014
rhumerus -34.198 -10.6141 -81.5686
rradius 40.683
rwrist -4.58632
rhand -8.15422 -51.1243
rfingers 7.12502
rthumb 17.7604 -80.3333
lclavicle -2.38542e-015 1.07344e-014
lhumerus -22.169 -4.38839 82.6314
lradius 29.4128
lwrist 0.183102
lhand -23.7736 -14.4056
lfingers 7.12502
lthumb 2.69599 15.5571
rfemur -30.9643 11.0855 14.2374
rtibia 12.4333
rfoot -18.6368 -2.3808
rtoes -22.4241
lfemur -27.3927 -1.67239 -27.5727
ltibia 8.91508
lfoot -5.06157 -2.10322
ltoes -17.5886
418
root 3.09056 18.9433 16.5343 -150.856 0.401684 177.219
lowerback -22.311 -1.86609 -6.88628
upperback 2.27808 -0.537057 -1.20933
thorax 15.3402 -0.812991 2.33992
lowerneck -2.18078 -1.53671 -0.0935682
upperneck 13.2167 -1.79088 2.54977
head 4.80837 -0.521331 0.818551
rclavicle -1.8487e-014 -1.39149e-014
rhumerus -34.3268 -10.4706 -81.6726
rradius 40.5004
rwrist -4.6544
rhand -8.00736 -50.8501
rfingers 7.12502
rthumb 17.9018 -80.0462
lclavicle -1.8487e-014 -1.39149e-014
lhumerus -22.4003 -4.286 82.5413
lradius 29.0203
lwrist 0.289115
lhand -23.7358 -14.1348
lfingers 7.12502
lthumb 2.73254 15.8274
rfemur -30.6356 10.9241 14.1908
rtibia 12.1864
rfoot -17.4082 -2.22682
rtoes -25.8875
lfemur -27.0756 -1.49003 -27.7939
ltibia 8.68897
lfoot -4.38912 -2.09579
ltoes -3.50894
419
root 3.09002 18.9321 16.5342 -150.309 0.29394 177.065
lowerback -22.7193 -2.00682 -7.04771
upperback 1.95727 -0.685138 -1.19456
thorax 15.2098 -0.892902 2.39509
lowerneck -1.97454 -1.47671 -0.0786188
upperneck 12.8974 -1.72257 2.57296
head 4.6474 -0.497307 0.82487
rclavicle -5.96354e-016 2.38542e-015
rhumerus -34.5117 -10.3986 -81.8186
rradius 40.3619
rwrist -4.57672
rhand -8.2672 -50.9421
rfingers 7.12502
rthumb 17.6517 -80.1608
lclavicle -5.96354e-016 2.38542e-015
lhumerus -22.6955 -4.1973 82.4635
lradius 28.6782
lwrist 0.168564
lhand -23.993 -13.9646
lfingers 7.12502
lthumb 2.48411 16.0007
rfemur -31.3007 10.7267 13.9166
rtibia 12.3481
rfoot -17.723 -2.26672
rtoes -26.1401
lfemur -27.8075 -1.60922 -27.9641
ltibia 8.99287
lfoot -4.20739 -2.16511
ltoes 1.92026
420
root 3.09052 18.9247 16.5189 -150.027 0.45521 177.028
lowerback -23.4895 -2.06819 -7.27566
upperback 1.96005 -0.645994 -1.14141
thorax 15.6671 -0.913659 2.58827
lowerneck -1.78707 -1.48143 -0.197119
upperneck 12.4093 -1.76302 2.74563
head 4.43585 -0.534129 0.898829
rclavicle -3.18055e-015 2.70347e-014
rhumerus -34.3351 -10.3916 -81.9281
rradius 40.2297
rwrist -4.51862
rhand -8.33685 -51.1011
rfingers 7.12502
rthumb 17.5847 -80.3258
lclavicle -3.18055e-015 2.70347e-014
lhumerus -22.5485 -3.75797 82.389
lradius 28.1503
lwrist -0.104189
lhand -23.7119 -13.9199
lfingers 7.12502
lthumb 2.75555 16.0421
rfemur -31.6692 10.7796 13.7483
rtibia 12.5029
rfoot -17.7145 -2.21481
rtoes -25.7656
lfemur -28.0984 -1.53544 -28.0542
ltibia 9.06405
lfoot -4.26524 -2.09214
ltoes 1.88529
